<svg width="1440" height="164" viewBox="0 0 1440 164" fill="none" xmlns="http://www.w3.org/2000/svg">
<path d="M0 43.2726L34.4 36.9862C68.8 30.5999 137.6 18.0269 206.08 9.14604C274.72 0.364932 342.88 -4.62431 411.52 6.05272C480 16.63 548.8 42.9733 617.28 48.5612C685.92 54.249 754.08 39.2812 822.72 26.5087C891.2 13.6364 960 3.05915 1028.48 16.8295C1097.12 30.5999 1165.28 68.9175 1233.92 71.7115C1302.4 74.5054 1371.2 41.9754 1405.6 25.6106L1440 9.34562V170H1405.6C1371.2 170 1302.4 170 1233.92 170C1165.28 170 1097.12 170 1028.48 170C960 170 891.2 170 822.72 170C754.08 170 685.92 170 617.28 170C548.8 170 480 170 411.52 170C342.88 170 274.72 170 206.08 170C137.6 170 68.8 170 34.4 170H0V43.2726Z" fill="#369336"/>
</svg>
