<?xml version="1.0" encoding="utf-8"?>
<!-- Generator: Adobe Illustrator 27.6.1, SVG Export Plug-In . SVG Version: 6.00 Build 0)  -->
<svg version="1.1" id="Layer_1" xmlns="http://www.w3.org/2000/svg" xmlns:xlink="http://www.w3.org/1999/xlink" x="0px" y="0px"
	 viewBox="0 0 458.54 195.34" style="enable-background:new 0 0 458.54 195.34;" xml:space="preserve">
<style type="text/css">
	.st0{fill:none;stroke:#009000;stroke-width:1.25;stroke-miterlimit:10;}
	.st1{fill:#333132;}
	.st2{fill-rule:evenodd;clip-rule:evenodd;fill:#8CC63F;}
	.st3{fill-rule:evenodd;clip-rule:evenodd;fill:#009000;}
	.st4{fill:url(#SVGID_1_);}
	.st5{fill:url(#SVGID_00000083800111980233123360000004747980779576207253_);}
	.st6{fill:url(#SVGID_00000029756389881376487240000016874274900286599864_);}
</style>
<line class="st0" x1="182.24" y1="104.97" x2="437.42" y2="104.97"/>
<g>
	<path class="st1" d="M183.17,121.18c0-5.97,4.76-9.44,10.17-9.44c3.08,0,5.04,1.04,6.58,2.24l-1.07,0.97
		c-1.35-1.08-3.13-1.83-5.46-1.83c-4.62,0-8.21,3.28-8.21,8.06c0,4.78,3.27,7.99,8.21,7.99c2.43,0,4.52-0.86,6.06-1.98l0.98,0.97
		c-1.87,1.45-4.29,2.39-7.14,2.39C187.55,130.54,183.17,127.11,183.17,121.18z"/>
	<path class="st1" d="M222.58,137.89l0.51-1.31c0.51,0.15,1.21,0.26,1.77,0.26c2.75,0,4.62-2.05,5.78-4.81l0.61-1.57l-9.19-18.29
		h2.1l5.46,11.38c0.75,1.49,1.63,3.43,2.47,5h0.19c0.7-1.57,1.45-3.51,2.05-5l4.85-11.38h1.96l-8.86,20.23
		c-1.21,2.95-3.5,5.86-7.46,5.86C224.03,138.27,223.19,138.12,222.58,137.89z"/>
	<path class="st1" d="M265.49,112.18h1.63l0.23,2.28h0.09c2.19-1.42,4.85-2.72,7.6-2.72c6.02,0,9,3.62,9,9.14
		c0,6.08-4.62,9.67-9.89,9.67c-2.15,0-4.43-0.82-6.76-2.2v9.89h-1.91V112.18z M282.01,120.88c0-4.44-1.96-7.76-7.23-7.76
		c-2.24,0-4.62,1.04-7.37,2.99v10.75c2.57,1.68,4.99,2.31,6.67,2.31C278.69,129.16,282.01,125.77,282.01,120.88z"/>
	<path class="st1" d="M310.27,112.18h1.63l0.23,3.36h0.09c1.49-2.2,3.68-3.81,6.34-3.81c0.79,0,1.49,0.07,2.19,0.37l-0.51,1.34
		c-0.61-0.15-1.07-0.22-1.91-0.22c-2.05,0-4.43,1.23-6.16,4.63v12.24h-1.91V112.18z"/>
	<path class="st1" d="M342.04,121.18c0-5.86,4.76-9.44,9.75-9.44c5.27,0,8.54,2.99,8.54,8.29c0,0.45,0,0.86-0.09,1.34h-16.19
		c0.05,4.55,3.4,7.84,8.49,7.84c2.47,0,4.48-0.6,6.06-1.46l0.79,1.04c-1.73,0.93-3.73,1.75-7.04,1.75
		C346.66,130.54,342.04,127.04,342.04,121.18z M358.51,120.02c0-4.63-2.66-6.94-6.72-6.94c-3.83,0-7.28,2.61-7.74,6.94H358.51z"/>
	<path class="st1" d="M383.09,128.04l1.03-0.97c1.87,1.27,3.87,2.13,7.23,2.13c3.59,0,5.46-1.68,5.46-3.58
		c0-2.28-2.89-3.28-5.5-4.03c-3.45-0.97-7-2.05-7-5.11c0-2.54,2.52-4.74,7.18-4.74c2.52,0,4.71,0.78,6.34,1.87l-1.07,0.97
		c-1.49-0.9-3.08-1.49-5.36-1.49c-3.54,0-5.13,1.64-5.13,3.32c0,2.05,2.43,2.84,5.13,3.66c3.54,1.08,7.37,1.98,7.37,5.45
		c0,2.69-2.71,5.04-7.51,5.04C387.75,130.54,385,129.57,383.09,128.04z"/>
	<path class="st1" d="M421.38,128.04l1.03-0.97c1.87,1.27,3.87,2.13,7.23,2.13c3.59,0,5.46-1.68,5.46-3.58
		c0-2.28-2.89-3.28-5.5-4.03c-3.45-0.97-7-2.05-7-5.11c0-2.54,2.52-4.74,7.18-4.74c2.52,0,4.71,0.78,6.34,1.87l-1.07,0.97
		c-1.49-0.9-3.08-1.49-5.36-1.49c-3.54,0-5.13,1.64-5.13,3.32c0,2.05,2.43,2.84,5.13,3.66c3.54,1.08,7.37,1.98,7.37,5.45
		c0,2.69-2.71,5.04-7.51,5.04C426.05,130.54,423.3,129.57,421.38,128.04z"/>
</g>
<path class="st1" d="M182.43,66.16h7.35v27.38h16.68v4.94h-24.03V66.16z"/>
<path class="st1" d="M217.27,66.16h24.4v4.94h-17.05v8.1h14.46v4.94h-14.46v9.39h17.67v4.94h-25.02V66.16z"/>
<path class="st1" d="M261.07,86.51L248.9,66.16h7.84l4.32,8.2c1.17,2.37,2.35,4.64,3.58,7.12h0.25c1.3-2.47,2.53-4.74,3.71-7.12
	l4.32-8.2h7.66l-12.17,20.36v11.96h-7.35V86.51z"/>
<path class="st1" d="M289.18,66.16h7.35v27.38h16.68v4.94h-24.03V66.16z"/>
<path class="st1" d="M331.86,66.16h8.65l13.1,32.32h-7.78l-3.09-8.65h-13.4l-3.09,8.65h-7.47L331.86,66.16z M331,85.23h10.13
	l-1.36-3.85c-1.3-3.41-2.47-7.12-3.64-10.62h-0.25c-1.05,3.56-2.22,7.21-3.52,10.62L331,85.23z"/>
<path class="st1" d="M362.38,66.16h7.84l12.11,17.79c1.48,2.17,2.84,4.74,4.14,7.31h0.25c-0.43-3.46-0.93-7.41-0.93-10.97V66.16
	h6.86v32.32h-7.84l-12.11-17.79c-1.48-2.17-2.84-4.74-4.14-7.31h-0.25c0.43,3.36,0.93,7.36,0.93,10.97v14.13h-6.86V66.16z"/>
<path class="st1" d="M406.67,66.16h10.81c12.35,0,19.77,5.29,19.77,16.01c0,10.77-7.41,16.31-19.4,16.31h-11.18V66.16z
	 M416.98,93.73c8.03,0,12.66-3.61,12.66-11.56c0-7.91-4.63-11.22-12.66-11.22h-2.96v22.78H416.98z"/>
<path class="st2" d="M135.08,108.09c6.48,9.03,17.49,13.66,31.97,10.23c-8.27-14.67-23.54-19.92-33.06-13.68
	c6.07,4.41,16.47,8.15,24.83,10.67C151.21,115.05,141.06,110.93,135.08,108.09z"/>
<g>
	<path class="st3" d="M106.17,48.1c9.93-4.98,16.24-15.13,15.13-29.97c-15.78,5.86-23.38,20.12-18.71,30.5
		c5.31-5.31,10.64-14.98,14.44-22.85C115.59,33.26,109.92,42.64,106.17,48.1z"/>
	<path class="st2" d="M137.31,96.64c10.52,3.59,22.17,0.97,31.97-10.23c-15.25-7.14-30.74-2.55-34.86,8.06
		c7.5,0.06,18.14-2.92,26.41-5.73C154.49,92.94,143.83,95.48,137.31,96.64z"/>
	<path class="st3" d="M131.68,66.91c11-1.56,20.21-9.17,23.88-23.59c-16.83,0.53-28.56,11.63-27.44,22.96
		c6.72-3.34,14.85-10.81,20.96-17.06C145.33,55.84,136.98,62.93,131.68,66.91z"/>
	<path class="st3" d="M97.17,81.54c7.4-8.29,9.52-20.05,3.01-33.43c-12.51,11.27-14.31,27.32-6.14,35.25
		c2.98-6.89,4.37-17.85,5-26.56C100.45,64.27,98.64,75.08,97.17,81.54z"/>
	<path class="st3" d="M136.51,79.78c10.87,2.31,22.13-1.68,30.53-13.96c-15.99-5.28-30.82,1.12-33.65,12.14
		c7.46-0.83,17.66-5.06,25.55-8.83C153.13,74.07,142.85,77.86,136.51,79.78z"/>
	<path class="st2" d="M104.97,90.43c10.6-3.33,18.45-12.34,19.71-27.17c-16.52,3.27-26.29,16.13-23.33,27.12
		c6.08-4.39,12.89-13.09,17.9-20.25C116.63,77.28,109.55,85.64,104.97,90.43z"/>
	<path class="st3" d="M124.19,117.48c1.44,11.02,8.96,20.31,23.34,24.13c-0.35-16.83-11.33-28.69-22.67-27.68
		c3.27,6.75,10.66,14.97,16.84,21.14C135.12,131.24,128.12,122.81,124.19,117.48z"/>
	<path class="st2" d="M120.59,57.9c10.31-4.15,17.42-13.76,17.52-28.63c-16.21,4.56-24.94,18.15-21.13,28.87
		c5.72-4.86,11.82-14.06,16.25-21.6C131.18,43.87,124.77,52.76,120.59,57.9z"/>
	<path class="st2" d="M103.57,102.54c-3.44-10.57-12.54-18.32-27.37-19.43c3.44,16.48,16.41,26.12,27.37,23.05
		c-4.45-6.04-13.23-12.76-20.44-17.69C90.3,91.02,98.73,98.02,103.57,102.54z"/>
	<path class="st3" d="M55.89,109.93c-3.44,10.57-12.53,18.32-27.37,19.43c3.44-16.48,16.4-26.12,27.36-23.05
		c-4.45,6.04-13.22,12.76-20.43,17.69C42.62,121.45,51.05,114.45,55.89,109.93z"/>
	<path class="st2" d="M45.76,97.99c-5.31,9.76-15.66,15.73-30.45,14.12c6.38-15.58,20.89-22.69,31.11-17.68
		c-5.48,5.13-15.33,10.13-23.32,13.67C30.62,106.9,40.18,101.56,45.76,97.99z"/>
	<path class="st3" d="M46.04,87.56c-10.09,4.65-21.96,3.23-32.85-6.91c14.44-8.66,30.31-5.68,35.5,4.45
		c-7.46,0.83-18.34-1.05-26.86-3C28.57,85.64,39.43,87.08,46.04,87.56z"/>
	<path class="st3" d="M48.99,70.58c-10.88,2.27-22.13-1.77-30.47-14.09c16.01-5.21,30.82,1.25,33.6,12.29
		c-7.45-0.86-17.64-5.14-25.51-8.94C32.39,64.8,42.66,68.63,48.99,70.58z"/>
	<path class="st2" d="M60.1,62.96c-10.97-1.76-20.04-9.54-23.45-24.02C53.47,39.78,65,51.09,63.67,62.39
		c-6.66-3.46-14.66-11.08-20.65-17.44C46.65,51.64,54.88,58.89,60.1,62.96z"/>
	<path class="st3" d="M73.13,93.77C62.03,94.27,51.57,88.49,45.29,75c16.64-2.59,30.22,6.15,31.21,17.48
		c-7.22-2.04-16.6-7.88-23.76-12.89C57.66,85.41,67.19,90.84,73.13,93.77z"/>
	<path class="st3" d="M82.39,118.68c-11.11-0.23-21.16-6.7-26.52-20.58c16.77-1.48,29.75,8.14,29.98,19.52
		c-7.07-2.52-16.04-8.97-22.85-14.44C67.52,109.32,76.66,115.36,82.39,118.68z"/>
	<path class="st3" d="M74.93,51.72c-10.04-4.77-16.55-14.79-15.75-29.64c15.9,5.53,23.79,19.63,19.34,30.1
		c-5.42-5.19-10.95-14.75-14.92-22.54C65.21,37.08,71.07,46.34,74.93,51.72z"/>
	<path class="st3" d="M90.44,49.66c-7.86-7.85-10.65-19.47-4.92-33.2c13.14,10.53,15.85,26.45,8.15,34.84
		c-3.37-6.71-5.38-17.57-6.52-26.23C86.18,32.61,88.6,43.3,90.44,49.66z"/>
	<path class="st2" d="M81.09,81.02c-9.82-5.2-15.89-15.49-14.44-30.3c15.65,6.22,22.91,20.65,18.01,30.92
		c-5.18-5.43-10.3-15.22-13.92-23.17C72.01,65.97,77.46,75.48,81.09,81.02z"/>
	<path class="st2" d="M63.97,125.89c-2.6,10.8-11.07,19.24-25.77,21.5c2.14-16.7,14.32-27.32,25.48-25.11
		c-3.97,6.37-12.19,13.75-18.99,19.23C51.64,138.41,59.5,130.77,63.97,125.89z"/>
</g>
<g>
	<path class="st3" d="M121.88,87.26l7.71,7.54c-17.82,27.75-43.76,41.38-79.78,37.49C49.81,132.29,94.29,132.17,121.88,87.26z"/>
</g>
<g>
	<polygon class="st3" points="128.36,108.53 108.12,93.02 131.57,83.39 	"/>
</g>
<linearGradient id="SVGID_1_" gradientUnits="userSpaceOnUse" x1="73.6245" y1="177.7934" x2="73.6245" y2="142.8895">
	<stop  offset="0.1776" style="stop-color:#42210B"/>
	<stop  offset="0.6645" style="stop-color:#936C47"/>
	<stop  offset="1" style="stop-color:#C69C6D"/>
</linearGradient>
<path class="st4" d="M80.2,136.3l0.03,44.68H67.02l0.07-43.61C67.09,137.37,73.41,137.39,80.2,136.3z"/>
<linearGradient id="SVGID_00000141415129690883124800000001582192368541820856_" gradientUnits="userSpaceOnUse" x1="92.8919" y1="177.2678" x2="92.8919" y2="137.7525">
	<stop  offset="0.1776" style="stop-color:#42210B"/>
	<stop  offset="0.6645" style="stop-color:#936C47"/>
	<stop  offset="1" style="stop-color:#C69C6D"/>
</linearGradient>
<path style="fill:url(#SVGID_00000141415129690883124800000001582192368541820856_);" d="M99.48,130.29l0.01,50.58H86.29l0.05-46.07
	C86.33,134.8,92.55,133.5,99.48,130.29z"/>
<linearGradient id="SVGID_00000005245640050209558850000012071568775064899255_" gradientUnits="userSpaceOnUse" x1="112.1448" y1="176.357" x2="112.1448" y2="126.8493">
	<stop  offset="0.1776" style="stop-color:#42210B"/>
	<stop  offset="0.6645" style="stop-color:#936C47"/>
	<stop  offset="1" style="stop-color:#C69C6D"/>
</linearGradient>
<path style="fill:url(#SVGID_00000005245640050209558850000012071568775064899255_);" d="M118.69,117.5l0.06,63.37h-13.21
	l-0.01-53.74C105.54,127.13,112.28,123.36,118.69,117.5z"/>
</svg>
