<?xml version="1.0" encoding="UTF-8"?>
<svg id="Layer_1" data-name="Layer 1" xmlns="http://www.w3.org/2000/svg" xmlns:xlink="http://www.w3.org/1999/xlink" viewBox="0 0 424.8 164.52">
  <defs>
    <style>
      .cls-1 {
        fill: #333132;
      }

      .cls-2 {
        fill: none;
        stroke: #009000;
        stroke-miterlimit: 10;
        stroke-width: 1.25px;
      }

      .cls-3 {
        fill: url(#New_Gradient_Swatch_1);
      }

      .cls-4 {
        fill: #8cc63f;
      }

      .cls-4, .cls-5 {
        fill-rule: evenodd;
      }

      .cls-5 {
        fill: #009000;
      }

      .cls-6 {
        fill: url(#New_Gradient_Swatch_1-2);
      }

      .cls-7 {
        fill: url(#New_Gradient_Swatch_1-3);
      }
    </style>
    <linearGradient id="New_Gradient_Swatch_1" data-name="New Gradient Swatch 1" x1="60.44" y1="161.34" x2="60.44" y2="126.44" gradientUnits="userSpaceOnUse">
      <stop offset=".18" stop-color="#42210b"/>
      <stop offset=".66" stop-color="#926c46"/>
      <stop offset="1" stop-color="#c69c6d"/>
    </linearGradient>
    <linearGradient id="New_Gradient_Swatch_1-2" data-name="New Gradient Swatch 1" x1="79.7" y1="160.81" x2="79.7" y2="121.3" xlink:href="#New_Gradient_Swatch_1"/>
    <linearGradient id="New_Gradient_Swatch_1-3" data-name="New Gradient Swatch 1" x1="98.96" y1="159.9" x2="98.96" y2="110.4" xlink:href="#New_Gradient_Swatch_1"/>
  </defs>
  <line class="cls-2" x1="169.06" y1="78.16" x2="424.23" y2="78.16"/>
  <g>
    <path class="cls-1" d="m169.98,94.37c0-5.97,4.76-9.44,10.17-9.44,3.08,0,5.04,1.04,6.58,2.24l-1.07.97c-1.35-1.08-3.13-1.83-5.46-1.83-4.62,0-8.21,3.28-8.21,8.06s3.27,7.99,8.21,7.99c2.43,0,4.52-.86,6.06-1.98l.98.97c-1.87,1.45-4.29,2.39-7.14,2.39-5.74,0-10.12-3.43-10.12-9.37Z"/>
    <path class="cls-1" d="m209.39,111.09l.51-1.31c.51.15,1.21.26,1.77.26,2.75,0,4.62-2.05,5.78-4.81l.61-1.57-9.19-18.29h2.1l5.46,11.38c.75,1.49,1.63,3.43,2.47,5h.19c.7-1.57,1.45-3.51,2.05-5l4.85-11.38h1.96l-8.86,20.23c-1.21,2.95-3.5,5.86-7.46,5.86-.79,0-1.63-.15-2.24-.37Z"/>
    <path class="cls-1" d="m252.3,85.37h1.63l.23,2.28h.09c2.19-1.42,4.85-2.72,7.6-2.72,6.02,0,9,3.62,9,9.14,0,6.08-4.62,9.67-9.89,9.67-2.15,0-4.43-.82-6.76-2.2v9.89h-1.91v-26.05Zm16.51,8.7c0-4.44-1.96-7.76-7.23-7.76-2.24,0-4.62,1.04-7.37,2.99v10.75c2.57,1.68,4.99,2.31,6.67,2.31,4.62,0,7.93-3.4,7.93-8.29Z"/>
    <path class="cls-1" d="m297.08,85.37h1.63l.23,3.36h.09c1.49-2.2,3.68-3.81,6.34-3.81.79,0,1.49.07,2.19.37l-.51,1.34c-.61-.15-1.07-.22-1.91-.22-2.05,0-4.43,1.23-6.16,4.63v12.24h-1.91v-17.91Z"/>
    <path class="cls-1" d="m328.85,94.37c0-5.86,4.76-9.44,9.75-9.44,5.27,0,8.54,2.99,8.54,8.29,0,.45,0,.86-.09,1.34h-16.19c.05,4.55,3.4,7.84,8.49,7.84,2.47,0,4.48-.6,6.06-1.46l.79,1.04c-1.73.93-3.73,1.75-7.04,1.75-5.69,0-10.31-3.51-10.31-9.37Zm16.47-1.16c0-4.63-2.66-6.94-6.72-6.94-3.83,0-7.28,2.61-7.74,6.94h14.46Z"/>
    <path class="cls-1" d="m369.9,101.23l1.03-.97c1.87,1.27,3.87,2.13,7.23,2.13,3.59,0,5.46-1.68,5.46-3.58,0-2.28-2.89-3.28-5.5-4.03-3.45-.97-7-2.05-7-5.11,0-2.54,2.52-4.74,7.18-4.74,2.52,0,4.71.78,6.34,1.87l-1.07.97c-1.49-.9-3.08-1.49-5.36-1.49-3.54,0-5.13,1.64-5.13,3.32,0,2.05,2.43,2.84,5.13,3.66,3.54,1.08,7.37,1.98,7.37,5.45,0,2.69-2.71,5.04-7.51,5.04-3.5,0-6.25-.97-8.16-2.5Z"/>
    <path class="cls-1" d="m408.19,101.23l1.03-.97c1.87,1.27,3.87,2.13,7.23,2.13,3.59,0,5.46-1.68,5.46-3.58,0-2.28-2.89-3.28-5.5-4.03-3.45-.97-7-2.05-7-5.11,0-2.54,2.52-4.74,7.18-4.74,2.52,0,4.71.78,6.34,1.87l-1.07.97c-1.49-.9-3.08-1.49-5.36-1.49-3.54,0-5.13,1.64-5.13,3.32,0,2.05,2.43,2.84,5.13,3.66,3.54,1.08,7.37,1.98,7.37,5.45,0,2.69-2.71,5.04-7.51,5.04-3.5,0-6.25-.97-8.16-2.5Z"/>
  </g>
  <path class="cls-1" d="m169.25,39.35h7.35v27.38h16.68v4.94h-24.03v-32.32Z"/>
  <path class="cls-1" d="m204.09,39.35h24.4v4.94h-17.05v8.1h14.45v4.94h-14.45v9.39h17.67v4.94h-25.02v-32.32Z"/>
  <path class="cls-1" d="m247.88,59.7l-12.17-20.36h7.84l4.32,8.2c1.17,2.37,2.35,4.64,3.58,7.12h.25c1.3-2.47,2.53-4.74,3.71-7.12l4.32-8.2h7.66l-12.17,20.36v11.96h-7.35v-11.96Z"/>
  <path class="cls-1" d="m275.99,39.35h7.35v27.38h16.68v4.94h-24.03v-32.32Z"/>
  <path class="cls-1" d="m318.67,39.35h8.65l13.1,32.32h-7.78l-3.09-8.65h-13.4l-3.09,8.65h-7.47l13.1-32.32Zm-.86,19.07h10.13l-1.36-3.85c-1.3-3.41-2.47-7.12-3.64-10.62h-.25c-1.05,3.56-2.22,7.21-3.52,10.62l-1.36,3.85Z"/>
  <path class="cls-1" d="m349.19,39.35h7.84l12.11,17.79c1.48,2.17,2.84,4.74,4.14,7.31h.25c-.43-3.46-.93-7.41-.93-10.97v-14.13h6.86v32.32h-7.84l-12.11-17.79c-1.48-2.17-2.84-4.74-4.14-7.31h-.25c.43,3.36.93,7.36.93,10.97v14.13h-6.86v-32.32Z"/>
  <path class="cls-1" d="m393.48,39.35h10.81c12.35,0,19.77,5.29,19.77,16.01s-7.41,16.31-19.4,16.31h-11.18v-32.32Zm10.32,27.57c8.03,0,12.66-3.61,12.66-11.56s-4.63-11.22-12.66-11.22h-2.96v22.78h2.96Z"/>
  <path class="cls-4" d="m121.89,91.63c6.48,9.03,17.49,13.66,31.97,10.23-8.27-14.67-23.54-19.92-33.06-13.68,6.07,4.41,16.47,8.15,24.83,10.67-7.61-.26-17.77-4.37-23.74-7.22Z"/>
  <g>
    <path class="cls-5" d="m92.98,31.65c9.93-4.98,16.24-15.13,15.13-29.97-15.78,5.86-23.38,20.12-18.71,30.5,5.31-5.31,10.64-14.98,14.44-22.85-1.45,7.48-7.11,16.86-10.86,22.31Z"/>
    <path class="cls-4" d="m124.12,80.18c10.52,3.59,22.17.97,31.97-10.23-15.25-7.14-30.74-2.55-34.86,8.06,7.5.06,18.14-2.92,26.41-5.73-6.34,4.21-17,6.75-23.52,7.91Z"/>
    <path class="cls-5" d="m118.5,50.46c11-1.56,20.21-9.17,23.88-23.59-16.83.53-28.56,11.63-27.44,22.96,6.72-3.34,14.85-10.81,20.96-17.06-3.75,6.63-12.11,13.72-17.4,17.7Z"/>
    <path class="cls-5" d="m83.98,65.09c7.4-8.29,9.52-20.05,3.01-33.43-12.51,11.27-14.31,27.32-6.14,35.25,2.98-6.89,4.37-17.85,5-26.56,1.41,7.48-.4,18.29-1.87,24.75Z"/>
    <path class="cls-5" d="m123.32,63.33c10.87,2.31,22.13-1.68,30.53-13.96-15.99-5.28-30.82,1.12-33.65,12.14,7.46-.83,17.66-5.06,25.55-8.83-5.8,4.94-16.08,8.73-22.42,10.65Z"/>
    <path class="cls-4" d="m91.78,73.98c10.6-3.33,18.45-12.34,19.71-27.17-16.52,3.27-26.29,16.13-23.33,27.12,6.08-4.39,12.89-13.09,17.9-20.25-2.62,7.15-9.71,15.51-14.28,20.3Z"/>
    <path class="cls-5" d="m111,101.02c1.44,11.02,8.96,20.31,23.34,24.13-.35-16.83-11.33-28.69-22.67-27.68,3.27,6.75,10.66,14.97,16.84,21.14-6.59-3.82-13.59-12.25-17.51-17.59Z"/>
    <path class="cls-4" d="m107.4,41.44c10.31-4.15,17.42-13.76,17.52-28.63-16.21,4.56-24.94,18.15-21.13,28.87,5.72-4.86,11.82-14.06,16.25-21.6-2.05,7.33-8.46,16.22-12.64,21.36Z"/>
    <path class="cls-4" d="m90.38,86.09c-3.44-10.57-12.54-18.32-27.37-19.43,3.44,16.48,16.41,26.12,27.37,23.05-4.45-6.04-13.23-12.76-20.44-17.69,7.18,2.55,15.61,9.55,20.44,14.07Z"/>
    <path class="cls-5" d="m42.7,93.47c-3.44,10.57-12.53,18.32-27.37,19.43,3.44-16.48,16.4-26.12,27.36-23.05-4.45,6.04-13.22,12.76-20.43,17.69,7.18-2.55,15.61-9.55,20.44-14.07Z"/>
    <path class="cls-4" d="m32.57,81.54c-5.31,9.76-15.66,15.73-30.45,14.12,6.38-15.58,20.89-22.69,31.11-17.68-5.48,5.13-15.33,10.13-23.32,13.67,7.52-1.2,17.09-6.55,22.67-10.11Z"/>
    <path class="cls-5" d="m32.85,71.11c-10.09,4.65-21.96,3.23-32.85-6.91,14.44-8.66,30.31-5.68,35.5,4.45-7.46.83-18.34-1.05-26.86-3,6.74,3.54,17.6,4.98,24.21,5.46Z"/>
    <path class="cls-5" d="m35.8,54.13c-10.88,2.27-22.13-1.77-30.47-14.09,16.01-5.21,30.82,1.25,33.6,12.29-7.45-.86-17.64-5.14-25.51-8.94,5.78,4.96,16.04,8.8,22.37,10.75Z"/>
    <path class="cls-4" d="m46.91,46.51c-10.97-1.76-20.04-9.54-23.45-24.02,16.82.84,28.35,12.15,27.02,23.45-6.66-3.46-14.66-11.08-20.65-17.44,3.63,6.69,11.86,13.93,17.08,18.01Z"/>
    <path class="cls-5" d="m59.94,77.31c-11.1.51-21.56-5.27-27.83-18.77,16.64-2.59,30.22,6.15,31.21,17.48-7.22-2.04-16.6-7.88-23.76-12.89,4.91,5.82,14.44,11.24,20.37,14.17Z"/>
    <path class="cls-5" d="m69.2,102.23c-11.11-.23-21.16-6.7-26.52-20.58,16.77-1.48,29.75,8.14,29.98,19.52-7.07-2.52-16.04-8.97-22.85-14.44,4.52,6.13,13.66,12.17,19.39,15.49Z"/>
    <path class="cls-5" d="m61.74,35.26c-10.04-4.77-16.55-14.79-15.75-29.64,15.9,5.53,23.79,19.63,19.34,30.1-5.42-5.19-10.95-14.75-14.92-22.54,1.6,7.44,7.46,16.7,11.33,22.08Z"/>
    <path class="cls-5" d="m77.26,33.2c-7.86-7.85-10.65-19.47-4.92-33.2,13.14,10.53,15.85,26.45,8.15,34.84-3.37-6.71-5.38-17.57-6.52-26.23-.98,7.55,1.44,18.24,3.29,24.6Z"/>
    <path class="cls-4" d="m67.9,64.57c-9.82-5.2-15.89-15.49-14.44-30.3,15.65,6.22,22.91,20.65,18.01,30.92-5.18-5.43-10.3-15.22-13.92-23.17,1.28,7.51,6.73,17.01,10.35,22.56Z"/>
    <path class="cls-4" d="m50.78,109.43c-2.6,10.8-11.07,19.24-25.77,21.5,2.14-16.7,14.32-27.32,25.48-25.11-3.97,6.37-12.19,13.75-18.99,19.23,6.95-3.1,14.82-10.74,19.28-15.62Z"/>
  </g>
  <path class="cls-5" d="m108.69,70.81l7.71,7.54c-17.82,27.75-43.76,41.38-79.78,37.49,0,0,44.48-.12,72.07-45.03Z"/>
  <polygon class="cls-5" points="115.17 92.07 94.93 76.57 118.39 66.94 115.17 92.07"/>
  <path class="cls-3" d="m67.01,119.84l.03,44.68h-13.21l.07-43.61s6.32.02,13.11-1.07Z"/>
  <path class="cls-6" d="m86.3,113.83v50.58s-13.2,0-13.2,0l.05-46.07s6.22-1.3,13.15-4.51Z"/>
  <path class="cls-7" d="m105.5,101.04l.06,63.37h-13.21v-53.74s6.73-3.77,13.15-9.63Z"/>
  <g>
    <path d="m169.98,120.53h1.09v7.22h-1.09v-7.22Z"/>
    <path d="m178.63,120.53h1.17l3.04,4.5c.32.48.62,1.02.92,1.55h.05c-.06-.75-.14-1.54-.14-2.29v-3.76h1.03v7.22h-1.17l-3.04-4.5c-.32-.48-.64-1.02-.92-1.55h-.05c.06.73.14,1.51.14,2.26v3.8h-1.03v-7.22Z"/>
    <path d="m191.09,120.53h1.16l1.32,3.89c.29.85.51,1.54.82,2.38h.05c.31-.84.52-1.53.82-2.38l1.42-3.89h1.12l-2.77,7.22h-1.26l-2.67-7.22Z"/>
    <path d="m204.2,120.53h4.91v.78h-3.82v2.26h3.22v.78h-3.22v2.62h3.95v.78h-5.04v-7.22Z"/>
    <path d="m215.66,126.8l.61-.6c.62.54,1.49.87,2.39.87,1.12,0,1.78-.47,1.78-1.17,0-.74-.62-.97-1.42-1.27l-1.23-.46c-.79-.29-1.71-.79-1.71-1.86s1.13-1.91,2.67-1.91c1.04,0,1.92.36,2.52.87l-.6.62c-.52-.42-1.18-.67-1.92-.67-.95,0-1.57.41-1.57,1.05,0,.69.74.96,1.4,1.19l1.22.45c.99.35,1.75.86,1.75,1.93,0,1.14-1.12,2.06-2.91,2.06-1.22,0-2.25-.41-2.99-1.08Z"/>
    <path d="m229.97,121.31h-2.57v-.78h6.25v.78h-2.58v6.44h-1.09v-6.44Z"/>
    <path d="m240.39,120.53h1.36l1.61,3.86c.21.51.39.97.57,1.51h.05c.19-.54.35-1,.56-1.51l1.61-3.86h1.36v7.22h-1.03v-3.98c0-.64.09-1.53.16-2.16h-.05l-.66,1.68-1.6,3.73h-.79l-1.58-3.73-.68-1.68h-.05c.06.63.16,1.52.16,2.16v3.98h-1v-7.22Z"/>
    <path d="m255.09,120.53h4.91v.78h-3.82v2.26h3.22v.78h-3.22v2.62h3.95v.78h-5.04v-7.22Z"/>
    <path d="m267.17,120.53h1.17l3.04,4.5c.32.48.62,1.02.92,1.55h.05c-.06-.75-.14-1.54-.14-2.29v-3.76h1.03v7.22h-1.17l-3.04-4.5c-.32-.48-.64-1.02-.92-1.55h-.05c.06.73.14,1.51.14,2.26v3.8h-1.03v-7.22Z"/>
    <path d="m282.56,121.31h-2.57v-.78h6.25v.78h-2.58v6.44h-1.09v-6.44Z"/>
    <path d="m300.83,120.53h1.36l1.61,3.86c.21.51.39.97.57,1.51h.05c.19-.54.35-1,.56-1.51l1.61-3.86h1.36v7.22h-1.03v-3.98c0-.64.09-1.53.16-2.16h-.05l-.66,1.68-1.6,3.73h-.79l-1.58-3.73-.68-1.68h-.05c.06.63.16,1.52.16,2.16v3.98h-1v-7.22Z"/>
    <path d="m317.26,120.53h1.25l2.87,7.22h-1.16l-.8-2.19h-3.1l-.82,2.19h-1.1l2.87-7.22Zm-.66,4.28h2.54l-.4-1.09c-.31-.8-.58-1.6-.86-2.43h-.05c-.26.84-.53,1.63-.83,2.43l-.4,1.09Z"/>
    <path d="m327.82,120.53h1.17l3.04,4.5c.32.48.62,1.02.92,1.55h.05c-.06-.75-.14-1.54-.14-2.29v-3.76h1.03v7.22h-1.17l-3.04-4.5c-.32-.48-.64-1.02-.92-1.55h-.05c.06.73.14,1.51.14,2.26v3.8h-1.03v-7.22Z"/>
    <path d="m343.19,120.53h1.25l2.87,7.22h-1.16l-.81-2.19h-3.1l-.82,2.19h-1.1l2.87-7.22Zm-.66,4.28h2.54l-.4-1.09c-.31-.8-.58-1.6-.86-2.43h-.05c-.26.84-.53,1.63-.83,2.43l-.4,1.09Z"/>
    <path d="m353.14,124.13c0-2.32,1.65-3.74,3.91-3.74,1.18,0,1.96.44,2.45.89l-.6.57c-.43-.37-.97-.65-1.83-.65-1.71,0-2.8,1.11-2.8,2.9s1,2.95,2.82,2.95c.61,0,1.19-.15,1.53-.42v-1.88h-1.81v-.76h2.81v3.04c-.56.48-1.49.84-2.64.84-2.25,0-3.84-1.39-3.84-3.74Z"/>
    <path d="m366.88,120.53h4.91v.78h-3.82v2.26h3.22v.78h-3.22v2.62h3.95v.78h-5.04v-7.22Z"/>
    <path d="m378.95,120.53h1.36l1.61,3.86c.21.51.39.97.57,1.51h.05c.19-.54.35-1,.56-1.51l1.61-3.86h1.36v7.22h-1.03v-3.98c0-.64.09-1.53.16-2.16h-.05l-.66,1.68-1.6,3.73h-.79l-1.58-3.73-.67-1.68h-.05c.06.63.16,1.52.16,2.16v3.98h-1v-7.22Z"/>
    <path d="m393.65,120.53h4.91v.78h-3.82v2.26h3.22v.78h-3.22v2.62h3.95v.78h-5.04v-7.22Z"/>
    <path d="m405.73,120.53h1.17l3.04,4.5c.32.48.62,1.02.92,1.55h.05c-.06-.75-.14-1.54-.14-2.29v-3.76h1.03v7.22h-1.17l-3.04-4.5c-.32-.48-.64-1.02-.92-1.55h-.05c.06.73.14,1.51.14,2.26v3.8h-1.03v-7.22Z"/>
    <path d="m421.12,121.31h-2.57v-.78h6.25v.78h-2.58v6.44h-1.09v-6.44Z"/>
  </g>
</svg>