<?xml version="1.0" encoding="UTF-8"?>
<svg id="Layer_1" data-name="Layer 1" xmlns="http://www.w3.org/2000/svg" xmlns:xlink="http://www.w3.org/1999/xlink" viewBox="0 0 164.52 164.52">
  <defs>
    <style>
      .cls-1 {
        fill: #333132;
      }

      .cls-2 {
        fill: none;
        stroke: #009000;
        stroke-miterlimit: 10;
        stroke-width: 1.25px;
      }

      .cls-3 {
        fill: url(#New_Gradient_Swatch_1);
      }

      .cls-4 {
        fill: #8cc63f;
      }

      .cls-4, .cls-5 {
        fill-rule: evenodd;
      }

      .cls-5 {
        fill: #009000;
      }

      .cls-6 {
        fill: url(#New_Gradient_Swatch_1-2);
      }

      .cls-7 {
        fill: url(#New_Gradient_Swatch_1-3);
      }
    </style>
    <linearGradient id="New_Gradient_Swatch_1" data-name="New Gradient Swatch 1" x1="60.44" y1="161.34" x2="60.44" y2="126.44" gradientUnits="userSpaceOnUse">
      <stop offset=".18" stop-color="#42210b"/>
      <stop offset=".66" stop-color="#926c46"/>
      <stop offset="1" stop-color="#c69c6d"/>
    </linearGradient>
    <linearGradient id="New_Gradient_Swatch_1-2" data-name="New Gradient Swatch 1" x1="79.7" y1="160.81" x2="79.7" y2="121.3" xlink:href="#New_Gradient_Swatch_1"/>
    <linearGradient id="New_Gradient_Swatch_1-3" data-name="New Gradient Swatch 1" x1="98.96" y1="159.9" x2="98.96" y2="110.4" xlink:href="#New_Gradient_Swatch_1"/>
  </defs>
  <g>
    <path class="cls-5" d="m92.98,31.65c9.93-4.98,16.24-15.13,15.13-29.97-15.78,5.86-23.38,20.12-18.71,30.5,5.31-5.31,10.64-14.98,14.44-22.85-1.45,7.48-7.11,16.86-10.86,22.31Z"/>
    <path class="cls-4" d="m124.12,80.18c10.52,3.59,22.17.97,31.97-10.23-15.25-7.14-30.74-2.55-34.86,8.06,7.5.06,18.14-2.92,26.41-5.73-6.34,4.21-17,6.75-23.52,7.91Z"/>
    <path class="cls-5" d="m118.5,50.46c11-1.56,20.21-9.17,23.88-23.59-16.83.53-28.56,11.63-27.44,22.96,6.72-3.34,14.85-10.81,20.96-17.06-3.75,6.63-12.11,13.72-17.4,17.7Z"/>
    <path class="cls-5" d="m83.98,65.09c7.4-8.29,9.52-20.05,3.01-33.43-12.51,11.27-14.31,27.32-6.14,35.25,2.98-6.89,4.37-17.85,5-26.56,1.41,7.48-.4,18.29-1.87,24.75Z"/>
    <path class="cls-5" d="m123.32,63.33c10.87,2.31,22.13-1.68,30.53-13.96-15.99-5.28-30.82,1.12-33.65,12.14,7.46-.83,17.66-5.06,25.55-8.83-5.8,4.94-16.08,8.73-22.42,10.65Z"/>
    <path class="cls-4" d="m91.78,73.98c10.6-3.33,18.45-12.34,19.71-27.17-16.52,3.27-26.29,16.13-23.33,27.12,6.08-4.39,12.89-13.09,17.9-20.25-2.62,7.15-9.71,15.51-14.28,20.3Z"/>
    <path class="cls-5" d="m111,101.02c1.44,11.02,8.96,20.31,23.34,24.13-.35-16.83-11.33-28.69-22.67-27.68,3.27,6.75,10.66,14.97,16.84,21.14-6.59-3.82-13.59-12.25-17.51-17.59Z"/>
    <path class="cls-4" d="m107.4,41.44c10.31-4.15,17.42-13.76,17.52-28.63-16.21,4.56-24.94,18.15-21.13,28.87,5.72-4.86,11.82-14.06,16.25-21.6-2.05,7.33-8.46,16.22-12.64,21.36Z"/>
    <path class="cls-4" d="m90.38,86.09c-3.44-10.57-12.54-18.32-27.37-19.43,3.44,16.48,16.41,26.12,27.37,23.05-4.45-6.04-13.23-12.76-20.44-17.69,7.18,2.55,15.61,9.55,20.44,14.07Z"/>
    <path class="cls-5" d="m42.7,93.47c-3.44,10.57-12.53,18.32-27.37,19.43,3.44-16.48,16.4-26.12,27.36-23.05-4.45,6.04-13.22,12.76-20.43,17.69,7.18-2.55,15.61-9.55,20.44-14.07Z"/>
    <path class="cls-4" d="m32.57,81.54c-5.31,9.76-15.66,15.73-30.45,14.12,6.38-15.58,20.89-22.69,31.11-17.68-5.48,5.13-15.33,10.13-23.32,13.67,7.52-1.2,17.09-6.55,22.67-10.11Z"/>
    <path class="cls-5" d="m32.85,71.11c-10.09,4.65-21.96,3.23-32.85-6.91,14.44-8.66,30.31-5.68,35.5,4.45-7.46.83-18.34-1.05-26.86-3,6.74,3.54,17.6,4.98,24.21,5.46Z"/>
    <path class="cls-5" d="m35.8,54.13c-10.88,2.27-22.13-1.77-30.47-14.09,16.01-5.21,30.82,1.25,33.6,12.29-7.45-.86-17.64-5.14-25.51-8.94,5.78,4.96,16.04,8.8,22.37,10.75Z"/>
    <path class="cls-4" d="m46.91,46.51c-10.97-1.76-20.04-9.54-23.45-24.02,16.82.84,28.35,12.15,27.02,23.45-6.66-3.46-14.66-11.08-20.65-17.44,3.63,6.69,11.86,13.93,17.08,18.01Z"/>
    <path class="cls-5" d="m59.94,77.31c-11.1.51-21.56-5.27-27.83-18.77,16.64-2.59,30.22,6.15,31.21,17.48-7.22-2.04-16.6-7.88-23.76-12.89,4.91,5.82,14.44,11.24,20.37,14.17Z"/>
    <path class="cls-5" d="m69.2,102.23c-11.11-.23-21.16-6.7-26.52-20.58,16.77-1.48,29.75,8.14,29.98,19.52-7.07-2.52-16.04-8.97-22.85-14.44,4.52,6.13,13.66,12.17,19.39,15.49Z"/>
    <path class="cls-5" d="m61.74,35.26c-10.04-4.77-16.55-14.79-15.75-29.64,15.9,5.53,23.79,19.63,19.34,30.1-5.42-5.19-10.95-14.75-14.92-22.54,1.6,7.44,7.46,16.7,11.33,22.08Z"/>
    <path class="cls-5" d="m77.26,33.2c-7.86-7.85-10.65-19.47-4.92-33.2,13.14,10.53,15.85,26.45,8.15,34.84-3.37-6.71-5.38-17.57-6.52-26.23-.98,7.55,1.44,18.24,3.29,24.6Z"/>
    <path class="cls-4" d="m67.9,64.57c-9.82-5.2-15.89-15.49-14.44-30.3,15.65,6.22,22.91,20.65,18.01,30.92-5.18-5.43-10.3-15.22-13.92-23.17,1.28,7.51,6.73,17.01,10.35,22.56Z"/>
    <path class="cls-4" d="m50.78,109.43c-2.6,10.8-11.07,19.24-25.77,21.5,2.14-16.7,14.32-27.32,25.48-25.11-3.97,6.37-12.19,13.75-18.99,19.23,6.95-3.1,14.82-10.74,19.28-15.62Z"/>
  </g>
  <path class="cls-5" d="m108.69,70.81l7.71,7.54c-17.82,27.75-43.76,41.38-79.78,37.49,0,0,44.48-.12,72.07-45.03Z"/>
  <polygon class="cls-5" points="115.17 92.07 94.93 76.57 118.39 66.94 115.17 92.07"/>
  <path class="cls-3" d="m67.01,119.84l.03,44.68h-13.21l.07-43.61s6.32.02,13.11-1.07Z"/>
  <path class="cls-6" d="m86.3,113.83v50.58s-13.2,0-13.2,0l.05-46.07s6.22-1.3,13.15-4.51Z"/>
  <path class="cls-7" d="m105.5,101.04l.06,63.37h-13.21v-53.74s6.73-3.77,13.15-9.63Z"/>

</svg>